<svg id="Calque_1" data-name="Calque 1" xmlns="http://www.w3.org/2000/svg" viewBox="0 0 250 250"><defs><style>.cls-1{fill:#e9446d;}</style></defs><path class="cls-1" d="M186.54,159.6,140.2,113.26l26.34-26.34a30.94,30.94,0,0,0,41.9-1.65l20.12-20.12-3.47-3.47h0l-4.16-4.16L207.85,70.6,212,74.76l-7,7A26,26,0,1,1,168.2,45l7-7,4.16,4.16,13.08-13.08-4.16-4.16h0l-3.47-3.47L164.73,41.56a30.94,30.94,0,0,0-1.66,41.89l-26.33,26.34-3.47,3.47,3.47,3.47,46.33,46.34a16.75,16.75,0,0,1-23.69,23.69l-46.33-46.34L109.58,137,63.24,90.62a21.65,21.65,0,0,0-30.62,30.62L79,167.57l-23.59,23.6a20.93,20.93,0,1,0,3.47,3.46L82.42,171l3.47-3.47-3.47-3.47L36.09,117.77A16.75,16.75,0,0,1,59.78,94.09l46.33,46.33,3.47,3.47,46.33,46.34a21.66,21.66,0,0,0,30.63-30.63ZM53.73,219a16,16,0,1,1,0-22.69A16.07,16.07,0,0,1,53.73,219Z"/><circle class="cls-1" cx="42.38" cy="207.62" r="9.11" transform="translate(-156.51 134.52) rotate(-58.28)"/></svg>