<?xml version="1.0" encoding="utf-8"?>
<!-- Generator: Adobe Illustrator 25.2.3, SVG Export Plug-In . SVG Version: 6.00 Build 0)  -->
<svg version="1.1" id="Calque_1" xmlns="http://www.w3.org/2000/svg" xmlns:xlink="http://www.w3.org/1999/xlink" x="0px" y="0px"
	 viewBox="0 0 250 250" style="enable-background:new 0 0 250 250;" xml:space="preserve">
<style type="text/css">
	.st0{fill:#AADDDA;}
</style>
<path class="st0" d="M186.5,159.6l-46.3-46.3l26.3-26.3c12.3,10.4,30.5,9.7,41.9-1.7l20.1-20.1l-3.5-3.5l0,0l-4.2-4.2l-13.1,13.1
	l4.1,4.2l-7,7c-10.2,10.2-26.6,10.2-36.8,0c-10.2-10.2-10.2-26.6,0-36.8l0,0l7-7l4.2,4.2l13.1-13.1l-4.2-4.2l0,0l-3.5-3.5
	l-20.1,20.1c-11.4,11.4-12.1,29.6-1.7,41.9l-26.3,26.3l-3.5,3.5l3.5,3.5l46.3,46.3c6.5,6.5,6.5,17.1,0,23.7s-17.1,6.5-23.7,0l0,0
	L113,140.4l-3.5-3.4L63.2,90.6c-8.5-8.5-22.2-8.5-30.6,0s-8.5,22.2,0,30.6L79,167.6l-23.6,23.6c-9.1-7.1-22.2-5.6-29.4,3.5
	s-5.6,22.2,3.5,29.4c9.1,7.1,22.2,5.6,29.4-3.5c6-7.6,6-18.3,0-25.9L82.4,171l3.5-3.5l-3.5-3.5l-46.3-46.3
	c-6.4-6.6-6.3-17.3,0.4-23.7c6.5-6.3,16.8-6.3,23.3,0l46.3,46.3l3.5,3.5l46.3,46.3c8.6,8.4,22.3,8.2,30.6-0.3
	C194.8,181.5,194.8,168,186.5,159.6L186.5,159.6z M53.7,219c-6.3,6.2-16.4,6.2-22.6-0.1s-6.2-16.4,0.1-22.6c6.2-6.2,16.3-6.2,22.6,0
	C60,202.6,60,212.7,53.7,219z"/>
<circle class="st0" cx="42.4" cy="207.6" r="9.1"/>
</svg>
